M48
; DRILL file {KiCad (6.0.10-0)} date Friday, May 26, 2023 at 04:11:34 PM
; FORMAT={2:4/ absolute / inch / suppress leading zeros}
; #@! TF.CreationDate,2023-05-26T16:11:34-07:00
; #@! TF.GenerationSoftware,Kicad,Pcbnew,(6.0.10-0)
; #@! TF.FileFunction,Plated,1,2,PTH
FMAT,2
INCH,TZ
; #@! TA.AperFunction,Plated,PTH,ViaDrill
T1C0.0157
; #@! TA.AperFunction,Plated,PTH,ComponentDrill
T2C0.0276
; #@! TA.AperFunction,Plated,PTH,ComponentDrill
T3C0.0295
; #@! TA.AperFunction,Plated,PTH,ComponentDrill
T4C0.0315
; #@! TA.AperFunction,Plated,PTH,ComponentDrill
T5C0.0394
; #@! TA.AperFunction,Plated,PTH,ComponentDrill
T6C0.0598
; #@! TA.AperFunction,Plated,PTH,ComponentDrill
T7C0.1457
%
G90
G05
T1
X49256Y-44457
T2
X44000Y-24500
X44000Y-26000
X44000Y-27500
X44500Y-41492
X44500Y-43000
X44500Y-44500
X44500Y-45935
X47000Y-24500
X47000Y-26000
X47000Y-27500
X47500Y-41492
X47500Y-43000
X47500Y-44500
X47500Y-45935
X49500Y-47445
X52500Y-47445
X54000Y-26000
X54000Y-27500
X54000Y-29000
X54500Y-42315
X54500Y-45315
X54626Y-43815
X57000Y-26000
X57000Y-27500
X57000Y-29000
X57500Y-42315
X57500Y-45315
X57626Y-43815
T3
X39500Y-20500
X40000Y-20500
X40500Y-20500
X49500Y-40892
X49500Y-45000
X50000Y-40392
X50000Y-44500
X50500Y-40892
X50500Y-45000
T4
X33000Y-34752
X33000Y-35752
X33000Y-36752
X33000Y-37752
X33000Y-38752
X33000Y-39752
X33000Y-40752
X33000Y-41752
X33000Y-42752
X33000Y-43752
X33000Y-44752
X33000Y-45752
X33000Y-46752
X35004Y-22498
X35004Y-23498
X35004Y-24498
X35004Y-25498
X35004Y-26498
X35004Y-27498
X35004Y-28498
X35016Y-16500
X35016Y-18500
X35016Y-20500
X36984Y-16500
X36984Y-18500
X36984Y-20500
X38004Y-22498
X38004Y-23498
X38004Y-24498
X38004Y-25498
X38004Y-26498
X38004Y-27498
X38004Y-28498
X39516Y-24500
X41484Y-24500
X42000Y-34752
X42000Y-35752
X42000Y-36752
X42000Y-37752
X42000Y-38752
X42000Y-39752
X42000Y-40752
X42000Y-41752
X42000Y-42752
X42000Y-43752
X42000Y-44752
X42000Y-45752
X42000Y-46752
X43031Y-34500
X44016Y-29250
X44250Y-47750
X44516Y-39750
X45000Y-34500
X45984Y-29250
X46004Y-31498
X46004Y-32498
X46004Y-33498
X46004Y-34498
X46004Y-35498
X46004Y-36498
X46004Y-37498
X46484Y-39750
X48187Y-47750
X49004Y-31498
X49004Y-32498
X49004Y-33498
X49004Y-34498
X49004Y-35498
X49004Y-36498
X49004Y-37498
X50016Y-34500
X50516Y-27500
X50531Y-36500
X51516Y-43500
X51984Y-34500
X52484Y-27500
X52500Y-36500
X53484Y-43500
X54004Y-33506
X54004Y-34506
X54004Y-35506
X54004Y-36506
X54004Y-37506
X54004Y-38506
X54004Y-39506
X54004Y-40506
X54031Y-31000
X57004Y-33506
X57004Y-34506
X57004Y-35506
X57004Y-36506
X57004Y-37506
X57004Y-38506
X57004Y-39506
X57004Y-40506
X57969Y-31000
X58016Y-36500
X59984Y-36500
X60004Y-33000
X60004Y-39500
X60004Y-46500
X61004Y-33000
X61004Y-39500
X61004Y-46500
X62004Y-33000
X62004Y-39500
X62004Y-46500
T5
X30000Y-34500
X30000Y-35500
X30000Y-39006
X30000Y-40006
X30000Y-41006
X30000Y-45500
X30000Y-46500
T6
X44000Y-50500
X46000Y-50500
X48000Y-50500
X50000Y-50500
X53000Y-50500
X55000Y-50500
X57000Y-50500
X59000Y-50500
T7
X30000Y-16500
X30000Y-51000
X63500Y-16500
X63500Y-51000
T0
M30
